<?xml version="1.0" encoding="UTF-8" standalone="no"?>
<!-- Created with Inkscape (http://www.inkscape.org/) -->

<svg
   xmlns:dc="http://purl.org/dc/elements/1.1/"
   xmlns:cc="http://creativecommons.org/ns#"
   xmlns:rdf="http://www.w3.org/1999/02/22-rdf-syntax-ns#"
   xmlns:svg="http://www.w3.org/2000/svg"
   xmlns="http://www.w3.org/2000/svg"
   xmlns:sodipodi="http://sodipodi.sourceforge.net/DTD/sodipodi-0.dtd"
   xmlns:inkscape="http://www.inkscape.org/namespaces/inkscape"
   width="210mm"
   height="297mm"
   viewBox="0 0 744.09448819 1052.3622047"
   id="svg2"
   version="1.1"
   inkscape:version="0.91 r13725"
   sodipodi:docname="TrippleC_all.svg"
   enable-background="new">
  <defs
     id="defs4">
    <filter
       inkscape:collect="always"
       style="color-interpolation-filters:sRGB"
       id="filter4498">
      <feBlend
         inkscape:collect="always"
         mode="screen"
         in2="BackgroundImage"
         id="feBlend4500" />
    </filter>
    <filter
       inkscape:collect="always"
       style="color-interpolation-filters:sRGB"
       id="filter4266">
      <feBlend
         inkscape:collect="always"
         mode="screen"
         in2="BackgroundImage"
         id="feBlend4268" />
    </filter>
    <filter
       inkscape:collect="always"
       style="color-interpolation-filters:sRGB"
       id="filter4498-9">
      <feBlend
         inkscape:collect="always"
         mode="screen"
         in2="BackgroundImage"
         id="feBlend4500-6" />
    </filter>
  </defs>
  <sodipodi:namedview
     id="base"
     pagecolor="#ffffff"
     bordercolor="#666666"
     borderopacity="1.0"
     inkscape:pageopacity="0.0"
     inkscape:pageshadow="2"
     inkscape:zoom="0.70710678"
     inkscape:cx="350.72263"
     inkscape:cy="710.91441"
     inkscape:document-units="mm"
     inkscape:current-layer="layer1"
     showgrid="false"
     showguides="false"
     inkscape:guide-bbox="true"
     inkscape:window-width="1368"
     inkscape:window-height="859"
     inkscape:window-x="-8"
     inkscape:window-y="-8"
     inkscape:window-maximized="1" />
  <metadata
     id="metadata7">
    <rdf:RDF>
      <cc:Work
         rdf:about="">
        <dc:format>image/svg+xml</dc:format>
        <dc:type
           rdf:resource="http://purl.org/dc/dcmitype/StillImage" />
        <dc:title></dc:title>
      </cc:Work>
    </rdf:RDF>
  </metadata>
  <g
     inkscape:groupmode="layer"
     id="layer2"
     inkscape:label="Ebene 2"
     style="display:inline;filter:url(#filter4266)">
    <text
       xml:space="preserve"
       style="font-style:normal;font-weight:normal;font-size:40px;line-height:125%;font-family:sans-serif;letter-spacing:0px;word-spacing:0px;fill:#000000;fill-opacity:1;stroke:none;stroke-width:1px;stroke-linecap:butt;stroke-linejoin:miter;stroke-opacity:1"
       x="596.7981"
       y="551.73059"
       id="text4288"
       sodipodi:linespacing="125%"><tspan
         sodipodi:role="line"
         id="tspan4290"
         x="596.7981"
         y="551.73059" /></text>
    <text
       xml:space="preserve"
       style="font-style:normal;font-weight:normal;font-size:40px;line-height:125%;font-family:sans-serif;letter-spacing:0px;word-spacing:0px;fill:#000000;fill-opacity:1;stroke:none;stroke-width:1px;stroke-linecap:butt;stroke-linejoin:miter;stroke-opacity:1"
       x="569.92804"
       y="557.38745"
       id="text4292"
       sodipodi:linespacing="125%"><tspan
         sodipodi:role="line"
         id="tspan4294"
         x="569.92804"
         y="557.38745" /></text>
  </g>
  <g
     inkscape:label="Ebene 1"
     inkscape:groupmode="layer"
     id="layer1"
     style="display:inline;opacity:1;filter:url(#filter4498)">
    <text
       xml:space="preserve"
       style="font-style:normal;font-variant:normal;font-weight:normal;font-stretch:normal;font-size:40px;line-height:125%;font-family:'Bauhaus 93';-inkscape-font-specification:'Bauhaus 93, ';letter-spacing:0px;word-spacing:0px;fill:#000000;fill-opacity:1;stroke:none;stroke-width:1px;stroke-linecap:butt;stroke-linejoin:miter;stroke-opacity:1"
       x="156.6786"
       y="570.98779"
       id="text4397"
       sodipodi:linespacing="125%"><tspan
         sodipodi:role="line"
         id="tspan4399"
         x="156.6786"
         y="570.98779" /></text>
    <g
       id="g4434"
       transform="matrix(0,-1,1,0,-29.738041,763.209)">
      <ellipse
         ry="20.281694"
         rx="22.025082"
         cy="322.22354"
         cx="163.24562"
         id="path4197"
         style="fill:#ffffff;fill-opacity:1;stroke:#000000;stroke-width:1.95629537;stroke-linecap:butt;stroke-miterlimit:4;stroke-dasharray:none;stroke-opacity:1" />
      <rect
         rx="2.5431582e-006"
         ry="2.5431582e-006"
         y="46.116154"
         x="67.78701"
         height="432.01416"
         width="623.35278"
         id="rect4223"
         style="fill:#ffffff;fill-opacity:1;stroke:#000000;stroke-width:7.08661413;stroke-linecap:butt;stroke-linejoin:bevel;stroke-miterlimit:4;stroke-dasharray:none;stroke-opacity:1" />
      <circle
         r="20.414331"
         cy="395.00116"
         cx="172.17674"
         id="path4229"
         style="fill:#ffffff;fill-opacity:1;stroke:#000000;stroke-width:7.08661413;stroke-linecap:butt;stroke-miterlimit:4;stroke-dasharray:none;stroke-opacity:1" />
      <circle
         r="20.414331"
         cy="395.00116"
         cx="367.05865"
         id="path4229-4"
         style="fill:#ffffff;fill-opacity:1;stroke:#000000;stroke-width:7.08661413;stroke-linecap:butt;stroke-miterlimit:4;stroke-dasharray:none;stroke-opacity:1" />
      <circle
         r="20.414331"
         cy="395.00116"
         cx="561.94049"
         id="path4229-4-0"
         style="fill:#ffffff;fill-opacity:1;stroke:#000000;stroke-width:7.08661413;stroke-linecap:butt;stroke-miterlimit:4;stroke-dasharray:none;stroke-opacity:1" />
      <circle
         r="10.207166"
         cy="324.13501"
         cx="172.17674"
         id="path4229-48"
         style="fill:#ffffff;fill-opacity:1;stroke:#000000;stroke-width:7.08661413;stroke-linecap:butt;stroke-miterlimit:4;stroke-dasharray:none;stroke-opacity:1" />
      <circle
         r="10.207166"
         cy="324.13501"
         cx="367.05865"
         id="path4229-48-1"
         style="fill:#ffffff;fill-opacity:1;stroke:#000000;stroke-width:7.08661413;stroke-linecap:butt;stroke-miterlimit:4;stroke-dasharray:none;stroke-opacity:1" />
      <circle
         r="10.207166"
         cy="324.13501"
         cx="561.94049"
         id="path4229-48-1-3"
         style="fill:#ffffff;fill-opacity:1;stroke:#000000;stroke-width:7.08661413;stroke-linecap:butt;stroke-miterlimit:4;stroke-dasharray:none;stroke-opacity:1" />
      <circle
         r="11.205347"
         cy="134.56807"
         cx="201.05338"
         id="path4314"
         style="fill:#ffffff;fill-opacity:1;stroke:#000000;stroke-width:7.08661413;stroke-linecap:butt;stroke-miterlimit:4;stroke-dasharray:none;stroke-opacity:1" />
      <circle
         r="11.205347"
         cy="233.78065"
         cx="202.64787"
         id="path4314-4"
         style="fill:#ffffff;fill-opacity:1;stroke:#000000;stroke-width:7.08661413;stroke-linecap:butt;stroke-miterlimit:4;stroke-dasharray:none;stroke-opacity:1" />
      <rect
         ry="2.40443e-006"
         y="94.528694"
         x="320.64133"
         height="179.29134"
         width="277.08661"
         id="rect4339"
         style="fill:#ffffff;fill-opacity:1;stroke:#000000;stroke-width:28.34645653;stroke-linecap:butt;stroke-miterlimit:4;stroke-dasharray:none;stroke-opacity:1"
         rx="2.40443e-006" />
      <circle
         r="3.7758911"
         cy="69.016884"
         cx="615.09009"
         id="path4341"
         style="fill:#ffffff;fill-opacity:1;stroke:#000000;stroke-width:3;stroke-linecap:butt;stroke-miterlimit:4;stroke-dasharray:none;stroke-opacity:1" />
      <circle
         r="3.7758911"
         cy="299.33185"
         cx="615.09009"
         id="path4341-8"
         style="fill:#ffffff;fill-opacity:1;stroke:#000000;stroke-width:3;stroke-linecap:butt;stroke-miterlimit:4;stroke-dasharray:none;stroke-opacity:1" />
      <circle
         r="3.7758911"
         cy="299.33185"
         cx="303.27911"
         id="path4341-8-0"
         style="fill:#ffffff;fill-opacity:1;stroke:#000000;stroke-width:3;stroke-linecap:butt;stroke-miterlimit:4;stroke-dasharray:none;stroke-opacity:1" />
      <circle
         r="3.7758911"
         cy="69.016884"
         cx="303.27911"
         id="path4341-3"
         style="fill:#ffffff;fill-opacity:1;stroke:#000000;stroke-width:3;stroke-linecap:butt;stroke-miterlimit:4;stroke-dasharray:none;stroke-opacity:1" />
      <text
         sodipodi:linespacing="125%"
         id="text4401"
         y="458.7807"
         x="159.97278"
         style="font-style:normal;font-weight:normal;font-size:40px;line-height:125%;font-family:sans-serif;letter-spacing:0px;word-spacing:0px;fill:#000000;fill-opacity:1;stroke:none;stroke-width:1px;stroke-linecap:butt;stroke-linejoin:miter;stroke-opacity:1"
         xml:space="preserve"><tspan
           style="font-style:normal;font-variant:normal;font-weight:normal;font-stretch:normal;font-family:'Bauhaus 93';-inkscape-font-specification:'Bauhaus 93, '"
           y="458.7807"
           x="159.97278"
           id="tspan4403"
           sodipodi:role="line">1</tspan></text>
      <text
         sodipodi:linespacing="125%"
         id="text4401-2"
         y="458.7807"
         x="354.47559"
         style="font-style:normal;font-weight:normal;font-size:40px;line-height:125%;font-family:sans-serif;letter-spacing:0px;word-spacing:0px;fill:#000000;fill-opacity:1;stroke:none;stroke-width:1px;stroke-linecap:butt;stroke-linejoin:miter;stroke-opacity:1"
         xml:space="preserve"><tspan
           style="font-style:normal;font-variant:normal;font-weight:normal;font-stretch:normal;font-family:'Bauhaus 93';-inkscape-font-specification:'Bauhaus 93, '"
           y="458.7807"
           x="354.47559"
           id="tspan4403-7"
           sodipodi:role="line">2</tspan></text>
      <text
         sodipodi:linespacing="125%"
         id="text4401-2-9"
         y="458.11664"
         x="550.65466"
         style="font-style:normal;font-weight:normal;font-size:40px;line-height:125%;font-family:sans-serif;letter-spacing:0px;word-spacing:0px;fill:#000000;fill-opacity:1;stroke:none;stroke-width:1px;stroke-linecap:butt;stroke-linejoin:miter;stroke-opacity:1"
         xml:space="preserve"><tspan
           style="font-style:normal;font-variant:normal;font-weight:normal;font-stretch:normal;font-family:'Bauhaus 93';-inkscape-font-specification:'Bauhaus 93, '"
           y="458.11664"
           x="550.65466"
           id="tspan4403-7-2"
           sodipodi:role="line">3</tspan></text>
      <text
         sodipodi:linespacing="125%"
         id="text4401-2-9-7"
         y="246.18224"
         x="138.67419"
         style="font-style:normal;font-weight:normal;font-size:40px;line-height:125%;font-family:sans-serif;letter-spacing:0px;word-spacing:0px;fill:#000000;fill-opacity:1;stroke:none;stroke-width:1px;stroke-linecap:butt;stroke-linejoin:miter;stroke-opacity:1"
         xml:space="preserve"><tspan
           style="font-style:normal;font-variant:normal;font-weight:normal;font-stretch:normal;font-family:'Bauhaus 93';-inkscape-font-specification:'Bauhaus 93, '"
           y="246.18224"
           x="138.67419"
           id="tspan4403-7-2-4"
           sodipodi:role="line">B</tspan></text>
      <text
         sodipodi:linespacing="125%"
         id="text4401-2-9-7-0"
         y="146.96965"
         x="139.22107"
         style="font-style:normal;font-weight:normal;font-size:40px;line-height:125%;font-family:sans-serif;letter-spacing:0px;word-spacing:0px;fill:#000000;fill-opacity:1;stroke:none;stroke-width:1px;stroke-linecap:butt;stroke-linejoin:miter;stroke-opacity:1"
         xml:space="preserve"><tspan
           style="font-style:normal;font-variant:normal;font-weight:normal;font-stretch:normal;font-family:'Bauhaus 93';-inkscape-font-specification:'Bauhaus 93, '"
           y="146.96965"
           x="139.22107"
           id="tspan4403-7-2-4-5"
           sodipodi:role="line">A</tspan></text>
      <path
         inkscape:connector-curvature="0"
         id="path4340"
         d="m 71.71603,262.52399 0,-212.000005 307.5,0 307.5,0 0,212.000005 0,212 -307.5,0 -307.5,0 0,-212 z m 104,183 0,-14 -4.5,0 -4.5,0 0,13.33333 c 0,7.33334 0.3,13.63334 0.66667,14 0.36666,0.36667 2.39166,0.66667 4.5,0.66667 l 3.83333,0 0,-14 z m 200,9.5 c 0,-3.78994 -0.30671,-4.5 -1.94377,-4.5 -1.91497,0 -1.91395,-0.0674 0.0686,-4.54934 2.42698,-5.4866 1.82591,-9.55763 -1.83649,-12.43847 -5.33755,-4.19853 -14.37912,-1.42842 -15.75288,4.82627 -0.93873,4.27402 1.74622,10.08402 4.68884,10.14623 1.00937,0.0213 3.85267,-5.67171 3.53575,-7.07949 -0.14304,-0.63536 0.30243,-1.36145 0.98993,-1.61353 2.16827,-0.79504 1.38482,1.65315 -3.25,10.15584 -2.475,4.54045 -4.5,8.54721 -4.5,8.90392 0,0.35672 4.05,0.64857 9,0.64857 l 9,0 0,-4.5 2e-5,0 z m 191.25,0.51895 c 3.3253,-3.68866 3.55074,-7.73126 0.63767,-11.43462 l -2.11232,-2.68539 2.02425,-4.87088 c 1.11333,-2.67899 1.76388,-5.13125 1.44565,-5.44947 -0.31822,-0.31823 -3.65358,-0.57859 -7.41192,-0.57859 l -6.83333,0 0,4.5 c 0,2.62675 0.46141,4.5 1.10841,4.5 0.66384,0 0.87203,0.94181 0.51905,2.34817 -0.46376,1.84777 -0.0455,2.59597 1.9628,3.511 3.35337,1.5279 2.83906,4.53159 -0.84881,4.95725 -2.45913,0.28384 -2.74145,0.71293 -2.74145,4.16667 0,4.3635 1.02206,5.1332 6,4.51854 2.27324,-0.28069 4.46388,-1.50138 6.25,-3.48268 z M 184.25858,416.05192 c 16.76266,-9.82357 16.18225,-33.67313 -1.04255,-42.83981 -2.98384,-1.58794 -5.77829,-2.12872 -11,-2.12872 -7.79149,0 -12.99301,2.09378 -17.63584,7.09902 -4.75034,5.12113 -6.31138,9.2867 -6.31138,16.84158 0,7.55556 1.56214,11.72348 6.31138,16.83928 7.37722,7.9466 20.18215,9.75382 29.67839,4.18865 z m 190.96181,1.81588 c 2.91412,-0.99294 6.56957,-3.36511 9.12797,-5.92351 11.16448,-11.16448 8.72309,-29.35985 -5.08484,-37.89664 -4.2568,-2.63178 -5.80804,-3.01981 -11.96907,-2.99396 -5.25947,0.0221 -8.1063,0.57672 -11.07842,2.15842 -26.69674,14.20746 -9.59202,54.39946 19.00436,44.65569 z m 198.38913,-1.59192 c 16.93176,-8.71339 16.70633,-33.91385 -0.38196,-42.69729 -6.55658,-3.37011 -16.03896,-3.49553 -22.15408,-0.29304 -19.81374,10.37647 -16.96085,38.29098 4.63608,45.36235 4.08733,1.33829 12.98,0.15988 17.89996,-2.37202 z M 178.39971,336.58061 c 4.93888,-2.24232 7.63696,-6.69655 7.64449,-12.62018 0.0206,-16.23669 -22.7828,-19.00186 -27.47762,-3.33197 -0.95095,3.174 -0.85183,4.60365 0.5789,8.34998 3.21785,8.42581 10.82479,11.42927 19.25423,7.60217 z m 194.77244,-0.0354 c 12.97366,-6.28044 8.78658,-26.04711 -5.56339,-26.26404 -6.0243,-0.0911 -10.44101,2.43703 -12.99141,7.43623 -3.72524,7.30207 -1.23804,15.01151 6.11526,18.95513 4.41237,2.36637 7.35037,2.3363 12.43954,-0.12732 z m 193.87269,0.61473 c 1.79552,-0.75021 4.52857,-2.86619 6.07345,-4.70218 2.53015,-3.00692 2.76691,-3.91823 2.38602,-9.18403 -0.35196,-4.86583 -0.92927,-6.35229 -3.44357,-8.86659 -7.39527,-7.39527 -20.56811,-4.54498 -23.45003,5.07402 -2.16597,7.22936 1.07065,14.81313 7.52051,17.6214 3.98006,1.73292 6.86717,1.7481 10.91362,0.0574 l 0,-2e-5 z M 307.46603,303.24631 c 1.77268,-1.37164 1.54883,-5.73464 -0.40499,-7.89358 -4.606,-5.08957 -12.37023,1.97457 -8.09501,7.3651 2.18593,2.75619 5.36548,2.95387 8.5,0.52848 z m 312,-0.55319 c 2.77939,-3.44954 0.1283,-9.16913 -4.25,-9.16913 -5.3863,0 -7.40956,8.25877 -2.60673,10.64047 2.68427,1.33112 4.9989,0.83444 6.85673,-1.47134 z m -6.99537,-118.41913 -0.25463,-104.250005 -153.25,-0.253184 -153.25,-0.253185 0,104.503194 0,104.50318 153.50463,0 153.50463,0 -0.25463,-104.25 z m -401.65251,61.98007 c 12.82086,-8.5649 6.05127,-28.69601 -9.22436,-27.43099 -19.14312,1.5853 -17.98477,29.68158 1.22436,29.69718 3.12469,0.003 5.69294,-0.72498 8,-2.26619 z m -53.17353,-0.69185 c 3.0278,-1.62043 4.52769,-6.52246 3.07141,-10.03822 -0.68345,-1.65 -1.65388,-3 -2.1565,-3 -0.51001,0 -0.45639,-0.8548 0.12132,-1.93426 1.54109,-2.87956 1.25339,-7.16714 -0.61981,-9.237 -1.3354,-1.47561 -3.16987,-1.82874 -9.5,-1.82874 l -7.84501,0 0,13.5 0,13.5 7.56574,0 c 4.16116,0 8.37444,-0.4328 9.36285,-0.96178 z M 207.51569,148.119 c 6.68476,-3.47808 9.57404,-9.68818 7.95353,-17.09501 -2.9327,-13.40452 -21.02005,-15.70006 -27.47827,-3.48738 -2.85841,5.40534 -2.86379,8.4152 -0.0249,13.95149 3.65634,7.13051 12.6963,10.19671 19.54966,6.6309 l -2e-5,0 z m -57.79966,-3.59501 c 0,-1.65 0.45,-3 1,-3 0.55,0 1,-1.8 1,-4 0,-2.2 -0.47989,-4 -1.06642,-4 -0.58653,0 -0.92403,-1.13899 -0.75,-2.53109 0.17403,-1.3921 0.76642,-2.51939 1.31642,-2.50509 0.57453,0.0149 1.12206,4.09385 1.28688,9.58679 l 0.28689,9.56078 4.21311,-0.3057 4.21312,-0.30569 -0.0896,-11.26485 c -0.0824,-10.36178 -0.27679,-11.46406 -2.42431,-13.75 -1.79921,-1.91517 -3.34189,-2.48515 -6.72611,-2.48515 -9.04609,0 -11.25995,3.52928 -11.25995,17.95034 l 0,10.04966 4.5,0 c 4.33333,0 4.5,-0.11112 4.5,-3 z M 307.1446,72.952556 c 0.86429,-0.864285 1.57143,-2.632142 1.57143,-3.928571 0,-4.8119 -6.03194,-7.325207 -9.42857,-3.928571 -3.39664,3.396635 -0.88333,9.428571 3.92857,9.428571 1.29643,0 3.06429,-0.707143 3.92857,-1.571429 z m 312,0 c 3.39664,-3.396635 0.88333,-9.428571 -3.92857,-9.428571 -3.01697,0 -5.5,2.483027 -5.5,5.5 0,3.016973 2.48303,5.5 5.5,5.5 1.29643,0 3.06429,-0.707143 3.92857,-1.571429 z"
         style="fill:#4f4f4f;fill-opacity:1;stroke:#ffffff;stroke-width:1.77165353;stroke-linecap:butt;stroke-linejoin:miter;stroke-miterlimit:4;stroke-dasharray:none;stroke-opacity:1" />
    </g>
    <g
       transform="matrix(0,1,-1,0,1110.9024,3.0191738)"
       style="display:inline;opacity:1;filter:url(#filter4498-9)"
       id="g4555-4-2">
      <rect
         ry="2.54316e-006"
         rx="2.5431598e-006"
         y="517.15021"
         x="66.837326"
         height="124.01575"
         width="627.16534"
         id="rect4181-7-0"
         style="fill:#ffffff;fill-opacity:1;stroke:#000000;stroke-width:7.08661461;stroke-linecap:butt;stroke-linejoin:bevel;stroke-miterlimit:4;stroke-dasharray:none;stroke-opacity:1" />
      <rect
         ry="2.54316e-006"
         rx="2.54316e-006"
         y="527.42468"
         x="105.45996"
         height="102.75591"
         width="191.33858"
         id="rect4183-9-6"
         style="fill:#ffffff;fill-opacity:1;stroke:#000000;stroke-width:15.94488144;stroke-linecap:butt;stroke-miterlimit:4;stroke-dasharray:none;stroke-opacity:1" />
      <circle
         r="24.80315"
         cy="592.97699"
         cx="469.35703"
         id="path4185-0-5"
         style="fill:#ffffff;fill-opacity:1;stroke:#000000;stroke-width:14.17322826;stroke-linecap:butt;stroke-miterlimit:4;stroke-dasharray:none;stroke-opacity:1" />
      <circle
         r="24.80315"
         cy="592.97699"
         cx="576.01056"
         id="path4217-2-9"
         style="fill:#ffffff;fill-opacity:1;stroke:#000000;stroke-width:14.17322826;stroke-linecap:butt;stroke-miterlimit:4;stroke-dasharray:none;stroke-opacity:1" />
      <circle
         r="17.71653"
         cy="555.77112"
         cx="360.57806"
         id="path4219-2-9"
         style="fill:#ffffff;fill-opacity:1;stroke:#000000;stroke-width:10.62992096;stroke-linecap:butt;stroke-miterlimit:4;stroke-dasharray:none;stroke-opacity:1" />
      <text
         transform="scale(-1,-1)"
         sodipodi:linespacing="125%"
         id="text4221-4-5"
         y="-525.98425"
         x="-505.47375"
         style="font-style:normal;font-weight:normal;font-size:40px;line-height:125%;font-family:sans-serif;letter-spacing:0px;word-spacing:0px;fill:#000000;fill-opacity:1;stroke:none;stroke-width:1px;stroke-linecap:butt;stroke-linejoin:miter;stroke-opacity:1"
         xml:space="preserve"><tspan
           style="font-style:normal;font-variant:normal;font-weight:normal;font-stretch:normal;font-size:25px;font-family:'Bauhaus 93';-inkscape-font-specification:'Bauhaus 93, '"
           y="-525.98425"
           x="-505.47375"
           id="tspan4223-5-4"
           sodipodi:role="line">Midi In</tspan></text>
      <text
         transform="scale(-1,-1)"
         sodipodi:linespacing="125%"
         id="text4296-6-9"
         y="-525.98425"
         x="-627.65106"
         style="font-style:normal;font-weight:normal;font-size:25px;line-height:125%;font-family:sans-serif;letter-spacing:0px;word-spacing:0px;fill:#000000;fill-opacity:1;stroke:none;stroke-width:1px;stroke-linecap:butt;stroke-linejoin:miter;stroke-opacity:1"
         xml:space="preserve"><tspan
           style="font-style:normal;font-variant:normal;font-weight:normal;font-stretch:normal;font-size:25px;font-family:'Bauhaus 93';-inkscape-font-specification:'Bauhaus 93, '"
           y="-525.98425"
           x="-627.65106"
           id="tspan4298-7-2"
           sodipodi:role="line">Midi Out</tspan></text>
      <text
         transform="scale(-1,-1)"
         sodipodi:linespacing="125%"
         id="text4318-3-6"
         y="-595.73145"
         x="-383.11829"
         style="font-style:normal;font-weight:normal;font-size:30px;line-height:125%;font-family:sans-serif;letter-spacing:0px;word-spacing:0px;fill:#000000;fill-opacity:1;stroke:none;stroke-width:1px;stroke-linecap:butt;stroke-linejoin:miter;stroke-opacity:1"
         xml:space="preserve"><tspan
           style="font-style:normal;font-variant:normal;font-weight:normal;font-stretch:normal;font-size:30px;font-family:'Bauhaus 93';-inkscape-font-specification:'Bauhaus 93, '"
           y="-595.73145"
           x="-383.11829"
           id="tspan4320-8-4"
           sodipodi:role="line">EXP</tspan></text>
      <path
         inkscape:connector-curvature="0"
         id="path4336-3-7"
         d="m 71.029739,578.725 0,-58 13,0 13,0 0,58 0,58 -13,0 -13,0 0,-58 z"
         style="fill:#4f4f4f;fill-opacity:1;stroke:#ffffff;stroke-width:1.77165353;stroke-linecap:butt;stroke-linejoin:miter;stroke-miterlimit:4;stroke-dasharray:none;stroke-opacity:1" />
      <path
         inkscape:connector-curvature="0"
         id="path4342-7-9"
         d="m 305.02974,578.725 0,-58 192.5,0 192.5,0 0,58 0,58 -192.5,0 -192.5,0 0,-58 z m 178.66445,42.8968 c 19.21884,-9.15943 23.85804,-34.31651 9.27146,-50.27655 -15.03528,-16.451 -41.07267,-13.24707 -51.84635,6.37975 -3.29792,6.00794 -3.56863,7.14345 -3.57602,15 -0.009,9.99549 1.99575,15.34258 8.33059,22.21507 9.71819,10.54299 24.30941,13.12083 37.82032,6.68173 z m 102.33555,1.93611 c 1.925,-0.56501 5.525,-2.37641 8,-4.02534 20.26237,-13.49946 18.13165,-44.73869 -3.78556,-55.50142 -4.90077,-2.40659 -6.92475,-2.80615 -14.21444,-2.80615 -7.27059,0 -9.31872,0.40206 -14.16054,2.77978 -6.22503,3.05699 -11.52631,8.32011 -15.03337,14.92516 -1.90884,3.59502 -2.28262,5.84343 -2.29331,13.79506 -0.0149,11.06029 1.91512,16.1926 8.60487,22.88235 8.72417,8.72418 20.5252,11.57753 32.88235,7.95056 z m -237.56627,-7.98467 c 2.93037,-1.33517 3.66932,-3.17639 4.4778,-11.15731 l 0.58847,-5.80907 1.92944,3.59987 c 1.9228,3.58747 1.92194,3.61532 -0.25,8.08582 -1.19869,2.46727 -2.17944,4.69891 -2.17944,4.9592 0,0.26028 1.575,0.47325 3.5,0.47325 2.65455,0 3.50768,-0.42273 3.5318,-1.75 0.0303,-1.66667 0.0951,-1.66667 1.36025,0 1.87147,2.46536 16.08057,2.53725 18.77921,0.095 2.49537,-2.25828 2.61696,-13.81655 0.17375,-16.51627 -2.37918,-2.62898 -16.7615,-2.6911 -18.22807,-0.0787 -0.93566,1.66666 -1.01455,1.66666 -1.65668,0 -0.5518,-1.43221 -1.926,-1.75 -7.56725,-1.75 l -6.89301,0 -7.1e-4,3.25 c -6e-4,2.7808 -0.36995,3.27134 -2.55838,3.39784 -6.36497,0.36794 -8.83169,8.32641 -3.80605,12.27958 2.98974,2.35173 5.1599,2.57884 8.79887,0.92082 z m 23.45221,-39.28926 c 6.63102,-3.42904 12.11406,-12.73439 12.11406,-20.55898 0,-8.4609 -5.86457,-17.67111 -13.44419,-21.11388 -8.13041,-3.69294 -19.67581,-1.94908 -25.93229,3.91692 -3.8441,3.60419 -7.60169,11.78733 -7.61375,16.58094 -0.0213,8.45191 5.24237,17.62656 12.167,21.20743 6.54805,3.38613 16.12485,3.37245 22.70917,-0.0324 z m 89.86475,-35.08285 c -0.26536,-1.38813 -0.0928,-2.76469 0.38342,-3.05902 0.47624,-0.29433 0.86589,-3.20859 0.86589,-6.47613 l 0,-5.94098 -3.03894,0 -3.03893,0 0.15861,8.25 c 0.18078,9.4037 0.29071,9.75 3.09485,9.75 1.6607,0 1.96451,-0.48681 1.5751,-2.52387 z m 22.15984,-6.47613 0.12104,-9 -2.55472,0 c -2.546,0 -2.55418,0.0281 -2.39611,8.25 0.17859,9.28955 0.31427,9.75 2.87302,9.75 1.63602,0 1.84889,-0.9791 1.95677,-9 z m 11.58947,7.88736 c 0.55,-0.0177 1.9,0.24691 3,0.58809 4.06662,1.2613 5.91822,-1.6256 6.3349,-9.877 l 0.3837,-7.59845 -3.1093,0 -3.1093,0 -0.19268,6.25 -0.19268,6.25 -0.35504,-6.25 -0.35503,-6.25 -5.95229,0 -5.95228,0 0,7.17126 c 0,8.39329 1.72918,11.39375 5.97207,10.36266 1.39036,-0.33788 2.97793,-0.62883 3.52793,-0.64656 z m 71.35497,-0.31237 c 2.72286,-1.40804 5.14503,-5.25511 5.14503,-8.17171 0,-3.24577 -3.05105,-7.26503 -6.33857,-8.35001 -7.82465,-2.58237 -14.59463,5.07055 -11.06519,12.5083 2.40223,5.06231 7.19565,6.63165 12.25873,4.01342 z m 17.96741,-7.82499 0.32238,-8.75 -3.11132,0 -3.11131,0 0.15861,8.25 c 0.0872,4.5375 0.37221,8.61323 0.63329,9.05718 0.26108,0.44395 1.44473,0.66895 2.63033,0.5 1.99068,-0.28368 2.18031,-0.9768 2.47802,-9.05718 z m 21.08815,0.25 0.12104,-9 -2.55472,0 c -2.546,0 -2.55418,0.0281 -2.39611,8.25 0.17859,9.28955 0.31427,9.75 2.87302,9.75 1.63602,0 1.84889,-0.9791 1.95677,-9 z m 11.58947,7.88736 c 0.55,-0.0177 1.9709,0.26697 3.15755,0.63266 1.49395,0.46039 2.80111,0.0213 4.25,-1.42757 1.72471,-1.72471 2.09245,-3.32269 2.09245,-9.09245 l 0,-7 -3,0 c -2.99278,0 -3.00046,0.015 -3.19268,6.25 l -0.19268,6.25 -0.35504,-6.25 c -0.33351,-5.87105 -0.50372,-6.25 -2.80732,-6.25 -2.2968,0 -2.46427,0.36457 -2.64136,5.75 l -0.18909,5.75 -0.36082,-5.75 c -0.3526,-5.61907 -0.42799,-5.75 -3.31091,-5.75 l -2.9501,0 0,6.77749 c 0,8.34502 1.85248,11.74444 5.87202,10.77555 1.44539,-0.3484 3.07798,-0.64795 3.62798,-0.66568 z m -168.5,-8.38736 0,-8.5 -3,0 -3,0 0,8.5 0,8.5 3,0 3,0 0,-8.5 z m 20,6.5 c 0,-1.45072 0.66667,-2 2.42742,-2 3.35722,0 6.87822,-4.61211 6.07437,-7.95672 -0.81135,-3.37581 -3.17082,-5.04328 -7.13622,-5.04328 -4.62498,0 -6.36557,2.93193 -6.36557,10.7225 0,6.02933 0.0988,6.2775 2.5,6.2775 1.83333,0 2.5,-0.53334 2.5,-2 z m 70,-4.67126 c 0,-7.12341 -1.59975,-10.32874 -5.15499,-10.32874 -2.14205,0 -2.57269,3.87232 -0.64501,5.8 0.93333,0.93333 0.93333,1.2 0,1.2 -0.66667,0 -1.2,1.33333 -1.2,3 0,1.65 0.45,3 1,3 0.55,0 1,0.9 1,2 0,1.46666 0.66667,2 2.5,2 2.41684,0 2.5,-0.22192 2.5,-6.67126 z m 53,4.67126 c 0,-1.30823 0.66667,-2 1.92742,-2 2.18266,0 6.07258,-4.42785 6.07258,-6.91236 0,-3.52062 -2.95175,-6.08764 -7,-6.08764 -5.31827,0 -7,2.57604 -7,10.7225 l 0,6.2775 3,0 c 2.33333,0 3,-0.44445 3,-2 z m -152.5567,-4.22251 c 0.85618,-1.22238 1.5567,-4.14738 1.5567,-6.5 0,-4.0861 -0.13423,-4.27749 -3,-4.27749 -2.77012,0 -3.01288,0.28735 -3.1681,3.75 l -0.16811,3.75 -0.39226,-3.75 c -0.33488,-3.2014 -0.74916,-3.75 -2.8319,-3.75 -2.238,0 -2.43963,0.38607 -2.43963,4.67126 0,2.94333 0.61219,5.34772 1.65499,6.5 2.31166,2.55435 6.8663,2.35028 8.78831,-0.39377 z m 106.73141,-2.02749 0.1747,-4.25 0.3828,4.25 c 0.33873,3.76082 0.66966,4.25 2.87519,4.25 2.40086,0 2.48139,-0.20998 2.1925,-5.71673 -0.2614,-4.98291 -0.63811,-5.9059 -2.93467,-7.19051 -2.36083,-1.32056 -2.90667,-1.29563 -5.25,0.23978 -2.2934,1.50269 -2.61523,2.38756 -2.61523,7.19051 0,5.17541 0.13764,5.47695 2.5,5.47695 2.2471,0 2.51767,-0.42993 2.67471,-4.25 z"
         style="fill:#4f4f4f;fill-opacity:1;stroke:#ffffff;stroke-width:1.77165353;stroke-linecap:butt;stroke-linejoin:bevel;stroke-miterlimit:4;stroke-dasharray:none;stroke-opacity:1" />
    </g>
  </g>
</svg>
