<?xml version="1.0" encoding="UTF-8" standalone="no"?>
<!-- Created with Inkscape (http://www.inkscape.org/) -->

<svg
   xmlns:dc="http://purl.org/dc/elements/1.1/"
   xmlns:cc="http://creativecommons.org/ns#"
   xmlns:rdf="http://www.w3.org/1999/02/22-rdf-syntax-ns#"
   xmlns:svg="http://www.w3.org/2000/svg"
   xmlns="http://www.w3.org/2000/svg"
   xmlns:sodipodi="http://sodipodi.sourceforge.net/DTD/sodipodi-0.dtd"
   xmlns:inkscape="http://www.inkscape.org/namespaces/inkscape"
   width="210mm"
   height="297mm"
   viewBox="0 0 744.09448819 1052.3622047"
   id="svg2"
   version="1.1"
   inkscape:version="0.91 r13725"
   sodipodi:docname="TrippleC_Front.svg"
   enable-background="new">
  <defs
     id="defs4">
    <filter
       inkscape:collect="always"
       style="color-interpolation-filters:sRGB"
       id="filter4498">
      <feBlend
         inkscape:collect="always"
         mode="screen"
         in2="BackgroundImage"
         id="feBlend4500" />
    </filter>
    <filter
       inkscape:collect="always"
       style="color-interpolation-filters:sRGB"
       id="filter4266">
      <feBlend
         inkscape:collect="always"
         mode="screen"
         in2="BackgroundImage"
         id="feBlend4268" />
    </filter>
  </defs>
  <sodipodi:namedview
     id="base"
     pagecolor="#ffffff"
     bordercolor="#666666"
     borderopacity="1.0"
     inkscape:pageopacity="0.0"
     inkscape:pageshadow="2"
     inkscape:zoom="0.70710678"
     inkscape:cx="235.48037"
     inkscape:cy="620.09742"
     inkscape:document-units="mm"
     inkscape:current-layer="layer1"
     showgrid="false"
     showguides="true"
     inkscape:guide-bbox="true"
     inkscape:window-width="1368"
     inkscape:window-height="859"
     inkscape:window-x="-8"
     inkscape:window-y="-8"
     inkscape:window-maximized="1" />
  <metadata
     id="metadata7">
    <rdf:RDF>
      <cc:Work
         rdf:about="">
        <dc:format>image/svg+xml</dc:format>
        <dc:type
           rdf:resource="http://purl.org/dc/dcmitype/StillImage" />
        <dc:title />
      </cc:Work>
    </rdf:RDF>
  </metadata>
  <g
     inkscape:groupmode="layer"
     id="layer2"
     inkscape:label="Ebene 2"
     style="display:inline;filter:url(#filter4266)">
    <text
       xml:space="preserve"
       style="font-style:normal;font-weight:normal;font-size:40px;line-height:125%;font-family:sans-serif;letter-spacing:0px;word-spacing:0px;fill:#000000;fill-opacity:1;stroke:none;stroke-width:1px;stroke-linecap:butt;stroke-linejoin:miter;stroke-opacity:1"
       x="596.7981"
       y="551.73059"
       id="text4288"
       sodipodi:linespacing="125%"><tspan
         sodipodi:role="line"
         id="tspan4290"
         x="596.7981"
         y="551.73059" /></text>
    <text
       xml:space="preserve"
       style="font-style:normal;font-weight:normal;font-size:40px;line-height:125%;font-family:sans-serif;letter-spacing:0px;word-spacing:0px;fill:#000000;fill-opacity:1;stroke:none;stroke-width:1px;stroke-linecap:butt;stroke-linejoin:miter;stroke-opacity:1"
       x="569.92804"
       y="557.38745"
       id="text4292"
       sodipodi:linespacing="125%"><tspan
         sodipodi:role="line"
         id="tspan4294"
         x="569.92804"
         y="557.38745" /></text>
  </g>
  <g
     inkscape:label="Ebene 1"
     inkscape:groupmode="layer"
     id="layer1"
     style="display:inline;opacity:1;filter:url(#filter4498)">
    <ellipse
       style="fill:#ffffff;fill-opacity:1;stroke:#000000;stroke-width:1.95629537;stroke-linecap:butt;stroke-miterlimit:4;stroke-dasharray:none;stroke-opacity:1"
       id="path4197"
       cx="163.24562"
       cy="322.22354"
       rx="22.025082"
       ry="20.281694" />
    <rect
       style="fill:#ffffff;fill-opacity:1;stroke:#000000;stroke-width:7.08661413;stroke-linecap:butt;stroke-miterlimit:4;stroke-dasharray:none;stroke-opacity:1"
       id="rect4223"
       width="637.52466"
       height="449.7294"
       x="48.298077"
       y="40.803955"
       ry="2.5431582e-006" />
    <circle
       style="fill:#ffffff;fill-opacity:1;stroke:#000000;stroke-width:3;stroke-linecap:butt;stroke-miterlimit:4;stroke-dasharray:none;stroke-opacity:1"
       id="path4229"
       cx="172.17674"
       cy="395.00116"
       r="20.414331" />
    <circle
       style="fill:#ffffff;fill-opacity:1;stroke:#000000;stroke-width:3;stroke-linecap:butt;stroke-miterlimit:4;stroke-dasharray:none;stroke-opacity:1"
       id="path4229-4"
       cx="367.05865"
       cy="395.00116"
       r="20.414331" />
    <circle
       style="fill:#ffffff;fill-opacity:1;stroke:#000000;stroke-width:3;stroke-linecap:butt;stroke-miterlimit:4;stroke-dasharray:none;stroke-opacity:1"
       id="path4229-4-0"
       cx="561.94049"
       cy="395.00116"
       r="20.414331" />
    <circle
       style="fill:#ffffff;fill-opacity:1;stroke:#000000;stroke-width:3;stroke-linecap:butt;stroke-miterlimit:4;stroke-dasharray:none;stroke-opacity:1"
       id="path4229-48"
       cx="172.17674"
       cy="324.13501"
       r="10.207166" />
    <circle
       style="fill:#ffffff;fill-opacity:1;stroke:#000000;stroke-width:3;stroke-linecap:butt;stroke-miterlimit:4;stroke-dasharray:none;stroke-opacity:1"
       id="path4229-48-1"
       cx="367.05865"
       cy="324.13501"
       r="10.207166" />
    <circle
       style="fill:#ffffff;fill-opacity:1;stroke:#000000;stroke-width:3;stroke-linecap:butt;stroke-miterlimit:4;stroke-dasharray:none;stroke-opacity:1"
       id="path4229-48-1-3"
       cx="561.94049"
       cy="324.13501"
       r="10.207166" />
    <circle
       style="fill:#ffffff;fill-opacity:1;stroke:#000000;stroke-width:3;stroke-linecap:butt;stroke-miterlimit:4;stroke-dasharray:none;stroke-opacity:1"
       id="path4314"
       cx="202.11769"
       cy="134.56807"
       r="11.205347" />
    <circle
       style="fill:#ffffff;fill-opacity:1;stroke:#000000;stroke-width:3;stroke-linecap:butt;stroke-miterlimit:4;stroke-dasharray:none;stroke-opacity:1"
       id="path4314-4"
       cx="203.71217"
       cy="233.78065"
       r="11.205347" />
    <rect
       style="fill:#ffffff;fill-opacity:1;stroke:#000000;stroke-width:28.34645653;stroke-linecap:butt;stroke-miterlimit:4;stroke-dasharray:none;stroke-opacity:1"
       id="rect4339"
       width="277.08661"
       height="179.29134"
       x="320.64133"
       y="94.528694"
       ry="2.40443e-006" />
    <circle
       style="fill:#ffffff;fill-opacity:1;stroke:#000000;stroke-width:3;stroke-linecap:butt;stroke-miterlimit:4;stroke-dasharray:none;stroke-opacity:1"
       id="path4341"
       cx="615.09009"
       cy="69.016884"
       r="3.7758911" />
    <circle
       style="fill:#ffffff;fill-opacity:1;stroke:#000000;stroke-width:3;stroke-linecap:butt;stroke-miterlimit:4;stroke-dasharray:none;stroke-opacity:1"
       id="path4341-8"
       cx="615.09009"
       cy="299.33185"
       r="3.7758911" />
    <circle
       style="fill:#ffffff;fill-opacity:1;stroke:#000000;stroke-width:3;stroke-linecap:butt;stroke-miterlimit:4;stroke-dasharray:none;stroke-opacity:1"
       id="path4341-8-0"
       cx="303.27911"
       cy="299.33185"
       r="3.7758911" />
    <circle
       style="fill:#ffffff;fill-opacity:1;stroke:#000000;stroke-width:3;stroke-linecap:butt;stroke-miterlimit:4;stroke-dasharray:none;stroke-opacity:1"
       id="path4341-3"
       cx="303.27911"
       cy="69.016884"
       r="3.7758911" />
    <text
       xml:space="preserve"
       style="font-style:normal;font-variant:normal;font-weight:normal;font-stretch:normal;font-size:40px;line-height:125%;font-family:'Bauhaus 93';-inkscape-font-specification:'Bauhaus 93, ';letter-spacing:0px;word-spacing:0px;fill:#000000;fill-opacity:1;stroke:none;stroke-width:1px;stroke-linecap:butt;stroke-linejoin:miter;stroke-opacity:1"
       x="156.6786"
       y="570.98779"
       id="text4397"
       sodipodi:linespacing="125%"><tspan
         sodipodi:role="line"
         id="tspan4399"
         x="156.6786"
         y="570.98779" /></text>
    <text
       xml:space="preserve"
       style="font-style:normal;font-weight:normal;font-size:40px;line-height:125%;font-family:sans-serif;letter-spacing:0px;word-spacing:0px;fill:#000000;fill-opacity:1;stroke:none;stroke-width:1px;stroke-linecap:butt;stroke-linejoin:miter;stroke-opacity:1"
       x="159.97278"
       y="458.7807"
       id="text4401"
       sodipodi:linespacing="125%"><tspan
         sodipodi:role="line"
         id="tspan4403"
         x="159.97278"
         y="458.7807"
         style="font-style:normal;font-variant:normal;font-weight:normal;font-stretch:normal;font-family:'Bauhaus 93';-inkscape-font-specification:'Bauhaus 93, '">1</tspan></text>
    <text
       xml:space="preserve"
       style="font-style:normal;font-weight:normal;font-size:40px;line-height:125%;font-family:sans-serif;letter-spacing:0px;word-spacing:0px;fill:#000000;fill-opacity:1;stroke:none;stroke-width:1px;stroke-linecap:butt;stroke-linejoin:miter;stroke-opacity:1"
       x="354.47559"
       y="458.7807"
       id="text4401-2"
       sodipodi:linespacing="125%"><tspan
         sodipodi:role="line"
         id="tspan4403-7"
         x="354.47559"
         y="458.7807"
         style="font-style:normal;font-variant:normal;font-weight:normal;font-stretch:normal;font-family:'Bauhaus 93';-inkscape-font-specification:'Bauhaus 93, '">2</tspan></text>
    <text
       xml:space="preserve"
       style="font-style:normal;font-weight:normal;font-size:40px;line-height:125%;font-family:sans-serif;letter-spacing:0px;word-spacing:0px;fill:#000000;fill-opacity:1;stroke:none;stroke-width:1px;stroke-linecap:butt;stroke-linejoin:miter;stroke-opacity:1"
       x="550.65466"
       y="458.11664"
       id="text4401-2-9"
       sodipodi:linespacing="125%"><tspan
         sodipodi:role="line"
         id="tspan4403-7-2"
         x="550.65466"
         y="458.11664"
         style="font-style:normal;font-variant:normal;font-weight:normal;font-stretch:normal;font-family:'Bauhaus 93';-inkscape-font-specification:'Bauhaus 93, '">3</tspan></text>
    <text
       xml:space="preserve"
       style="font-style:normal;font-weight:normal;font-size:40px;line-height:125%;font-family:sans-serif;letter-spacing:0px;word-spacing:0px;fill:#000000;fill-opacity:1;stroke:none;stroke-width:1px;stroke-linecap:butt;stroke-linejoin:miter;stroke-opacity:1"
       x="138.67419"
       y="246.18224"
       id="text4401-2-9-7"
       sodipodi:linespacing="125%"><tspan
         sodipodi:role="line"
         id="tspan4403-7-2-4"
         x="138.67419"
         y="246.18224"
         style="font-style:normal;font-variant:normal;font-weight:normal;font-stretch:normal;font-family:'Bauhaus 93';-inkscape-font-specification:'Bauhaus 93, '">B</tspan></text>
    <text
       xml:space="preserve"
       style="font-style:normal;font-weight:normal;font-size:40px;line-height:125%;font-family:sans-serif;letter-spacing:0px;word-spacing:0px;fill:#000000;fill-opacity:1;stroke:none;stroke-width:1px;stroke-linecap:butt;stroke-linejoin:miter;stroke-opacity:1"
       x="139.22107"
       y="146.96965"
       id="text4401-2-9-7-0"
       sodipodi:linespacing="125%"><tspan
         sodipodi:role="line"
         id="tspan4403-7-2-4-5"
         x="139.22107"
         y="146.96965"
         style="font-style:normal;font-variant:normal;font-weight:normal;font-stretch:normal;font-family:'Bauhaus 93';-inkscape-font-specification:'Bauhaus 93, '">A</tspan></text>
    <path
       style="fill:#4f4f4f;fill-opacity:1;stroke:#ffffff;stroke-width:1.77165353;stroke-linecap:butt;stroke-miterlimit:4;stroke-dasharray:none;stroke-opacity:1"
       d="m 52.731301,265.55186 0,-220.617319 314.662509,0 314.66252,0 0,220.617319 0,220.61731 -314.66252,0 -314.662509,0 0,-220.61731 z m 123.036579,179.60512 0,-14.14214 -4.24264,0 -4.24264,0 0,14.14214 0,14.14213 4.24264,0 4.24264,0 0,-14.14213 z m 200.81832,9.89949 c 0,-2.95396 -0.69029,-4.24264 -2.27262,-4.24264 -1.63071,0 -1.9693,-0.69904 -1.19872,-2.47487 0.59066,-1.36118 1.35749,-4.48081 1.70407,-6.93252 1.32503,-9.37309 -10.59933,-14.18572 -16.51486,-6.66534 -1.61209,2.04943 -2.93107,4.77161 -2.93107,6.04928 0,3.19735 4.13966,8.83981 5.75361,7.84233 2.01103,-1.24289 1.56984,1.30686 -0.75889,4.3857 -3.93648,5.20449 -2.73253,6.2807 7.02609,6.2807 l 9.19239,0 0,-4.24264 z m 190.276,0.77139 c 4.0814,-4.08138 4.20006,-5.17207 1.24115,-11.4075 -1.68856,-3.55839 -1.86028,-5.39067 -0.70711,-7.54538 2.65046,-4.95244 1.7842,-5.86014 -5.59265,-5.86014 l -7.11566,0 0.39815,6.99248 c 0.30846,5.41749 0.98914,7.14841 3.02201,7.68474 3.16162,0.83413 2.28609,4.49685 -1.00832,4.21825 -1.73579,-0.14679 -2.32266,1.01452 -2.32266,4.59619 0,4.39822 0.35443,4.79261 4.30692,4.79261 2.68717,0 5.6124,-1.30547 7.77817,-3.47125 z M 183.91253,414.05192 c 6.68452,-4.0756 10.22954,-10.6945 10.22954,-19.09952 0,-13.13446 -8.77528,-21.90974 -21.90973,-21.90974 -13.13445,0 -21.90973,8.77528 -21.90973,21.90974 0,13.13445 8.77528,21.90973 21.90973,21.90973 4.56666,0 8.70352,-0.99531 11.68019,-2.81021 z m 195.64652,-0.38938 c 13.77185,-9.20019 12.30661,-32.51155 -2.43055,-38.66914 -15.89578,-6.64168 -31.91781,3.29989 -32.15854,19.95416 -0.12516,8.65931 2.48093,13.36121 10.38866,18.74317 6.46319,4.39881 17.59301,4.38584 24.20043,-0.0281 l 0,-4e-5 z m 193.6249,0.63066 c 5.67162,-2.96895 11.29165,-12.6336 11.29165,-19.41803 0,-6.57612 -5.66014,-16.18012 -11.32689,-19.21924 -17.52825,-9.4005 -38.31009,6.87162 -32.69816,25.60256 1.6783,5.60167 7.43178,12.33367 12.20524,14.28105 5.02798,2.05121 15.43593,1.41931 20.52816,-1.24634 z M 180.78191,332.79128 c 7.62646,-7.62646 2.24665,-20.57038 -8.54957,-20.57038 -10.79622,0 -16.17603,12.94392 -8.54956,20.57038 2.39662,2.39662 5.04339,3.47125 8.54956,3.47125 3.50617,0 6.15294,-1.07463 8.54957,-3.47125 z m 193.09842,1.65851 c 6.35372,-4.87823 6.85964,-15.907 0.92053,-20.06692 -4.32808,-3.0315 -11.30433,-2.68978 -15.70161,0.7691 -8.2141,6.46122 -2.7151,21.16781 7.87674,21.06559 2.56326,-0.0247 5.67021,-0.82024 6.90434,-1.76777 z m 196.56191,-2.32112 c 4.41226,-4.41224 5.14118,-8.3029 2.48865,-13.28322 -2.50006,-4.69403 -5.62254,-6.53005 -11.18975,-6.57957 -10.8431,-0.0965 -16.06705,13.59798 -7.87512,20.64439 5.41519,4.65795 11.41982,4.37483 16.57622,-0.7816 z m -263.2171,-29.02232 c 0.93276,-1.1239 1.48798,-3.51039 1.23381,-5.3033 -0.84742,-5.97793 -11.06871,-4.51868 -11.06871,1.58024 0,5.20219 6.54962,7.68159 9.8349,3.72306 z m 313.16124,-1.1385 c 2.27485,-3.62892 -0.61836,-7.42462 -5.65933,-7.42462 -3.45826,0 -4.16046,0.63036 -4.55531,4.08919 -0.738,6.46503 6.72516,8.90201 10.21464,3.33543 z m -7.62651,-117.73327 0,-103.9447 -153.44217,0 -153.44218,0 0,103.9447 0,103.94469 153.44218,0 153.44217,0 0,-103.94469 z m -453.96256,60.10407 c 2.93185,-2.93185 3.81635,-9.122 1.50734,-10.54906 -0.72661,-0.44905 -0.97951,-2.92145 -0.56201,-5.49419 1.10656,-6.81892 -2.10444,-9.41259 -11.65294,-9.41259 l -7.67716,0 0,14.14213 0,14.14214 7.77817,0 c 5.89256,0 8.46386,-0.68568 10.6066,-2.82843 z m 53.8489,-1.30543 c 5.03535,-5.03535 5.5355,-12.08759 1.24416,-17.54315 -6.07035,-7.71719 -19.23634,-5.65175 -22.43338,3.51928 -4.72098,13.5426 11.1599,24.0532 21.18922,14.02387 z m -62.47184,-99.10373 0.56945,-3.53553 0.90034,3.53553 c 0.68969,2.70831 1.96274,3.63922 5.44096,3.97869 l 4.54062,0.44315 0,-11.46759 c 0,-10.42547 -0.32981,-11.7974 -3.62928,-15.09687 -2.93853,-2.93854 -4.4826,-3.45861 -8.11279,-2.73258 -7.41018,1.48204 -8.71101,3.90317 -9.26684,17.24769 l -0.50281,12.07162 4.74545,-0.45429 c 3.80716,-0.36446 4.85805,-1.15335 5.3149,-3.98982 z m 58.14873,2.10668 c 8.24702,-4.2647 9.60779,-13.90136 2.9089,-20.60024 -10.31283,-10.31284 -26.87628,0.84166 -21.28695,14.3355 1.82156,4.39764 7.21641,8.24428 11.70245,8.34408 1.39981,0.0311 4.40382,-0.90456 6.6756,-2.07934 z m 98.73681,-72.645394 c 2.5136,-1.593259 1.5665,-7.266622 -1.53794,-9.212689 -4.90332,-3.07372 -10.41514,3.878239 -6.66113,8.401555 1.89977,2.289093 5.33174,2.628616 8.19907,0.811134 z m 313.32825,-1.939731 c 2.27242,-3.629227 -0.62149,-7.424621 -5.66111,-7.424621 -3.20148,0 -4.18948,0.712664 -4.55389,3.28483 -0.25597,1.806657 -0.10055,4.235762 0.34551,5.398012 1.08352,2.823602 7.85416,1.960441 9.86949,-1.258221 z"
       id="path4164"
       inkscape:connector-curvature="0" />
    <rect
       style="fill:#ffffff;fill-opacity:1;stroke:#000000;stroke-width:7.08661417;stroke-linecap:butt;stroke-miterlimit:4;stroke-dasharray:none;stroke-opacity:1"
       id="rect4181"
       width="637.79529"
       height="138.18896"
       x="48.083267"
       y="529.5072"
       rx="2.5431598e-006"
       ry="2.54316e-006" />
    <rect
       style="fill:#ffffff;fill-opacity:1;stroke:#000000;stroke-width:10.62992096;stroke-linecap:butt;stroke-miterlimit:4;stroke-dasharray:none;stroke-opacity:1"
       id="rect4183"
       width="191.33858"
       height="102.75591"
       x="94.146255"
       y="547.22369"
       rx="2.54316e-006"
       ry="2.54316e-006" />
    <circle
       style="fill:#ffffff;fill-opacity:1;stroke:#000000;stroke-width:7.08661413;stroke-linecap:butt;stroke-miterlimit:4;stroke-dasharray:none;stroke-opacity:1"
       id="path4185"
       cx="460.87854"
       cy="609.23163"
       r="24.80315" />
    <circle
       style="fill:#ffffff;fill-opacity:1;stroke:#000000;stroke-width:7.08661461;stroke-linecap:butt;stroke-miterlimit:4;stroke-dasharray:none;stroke-opacity:1"
       id="path4217"
       cx="567.17773"
       cy="609.23163"
       r="24.80315" />
    <circle
       style="fill:#ffffff;fill-opacity:1;stroke:#000000;stroke-width:5.31496048;stroke-linecap:butt;stroke-miterlimit:4;stroke-dasharray:none;stroke-opacity:1"
       id="path4219"
       cx="349.26434"
       cy="575.57013"
       r="17.71653" />
    <text
       xml:space="preserve"
       style="font-style:normal;font-weight:normal;font-size:40px;line-height:125%;font-family:sans-serif;letter-spacing:0px;word-spacing:0px;fill:#000000;fill-opacity:1;stroke:none;stroke-width:1px;stroke-linecap:butt;stroke-linejoin:miter;stroke-opacity:1"
       x="-494.16003"
       y="-545.78326"
       id="text4221"
       sodipodi:linespacing="125%"
       transform="scale(-1,-1)"><tspan
         sodipodi:role="line"
         id="tspan4223"
         x="-494.16003"
         y="-545.78326"
         style="font-style:normal;font-variant:normal;font-weight:normal;font-stretch:normal;font-size:25px;font-family:'Bauhaus 93';-inkscape-font-specification:'Bauhaus 93, '">Midi In</tspan></text>
    <text
       xml:space="preserve"
       style="font-style:normal;font-weight:normal;font-size:25px;line-height:125%;font-family:sans-serif;letter-spacing:0px;word-spacing:0px;fill:#000000;fill-opacity:1;stroke:none;stroke-width:1px;stroke-linecap:butt;stroke-linejoin:miter;stroke-opacity:1"
       x="-616.33734"
       y="-545.78326"
       id="text4296"
       sodipodi:linespacing="125%"
       transform="scale(-1,-1)"><tspan
         sodipodi:role="line"
         id="tspan4298"
         x="-616.33734"
         y="-545.78326"
         style="font-style:normal;font-variant:normal;font-weight:normal;font-stretch:normal;font-size:25px;font-family:'Bauhaus 93';-inkscape-font-specification:'Bauhaus 93, '">Midi Out</tspan></text>
    <text
       xml:space="preserve"
       style="font-style:normal;font-weight:normal;font-size:30px;line-height:125%;font-family:sans-serif;letter-spacing:0px;word-spacing:0px;fill:#000000;fill-opacity:1;stroke:none;stroke-width:1px;stroke-linecap:butt;stroke-linejoin:miter;stroke-opacity:1"
       x="-371.80457"
       y="-615.53046"
       id="text4318"
       sodipodi:linespacing="125%"
       transform="scale(-1,-1)"><tspan
         sodipodi:role="line"
         id="tspan4320"
         x="-371.80457"
         y="-615.53046"
         style="font-style:normal;font-variant:normal;font-weight:normal;font-stretch:normal;font-size:30px;font-family:'Bauhaus 93';-inkscape-font-specification:'Bauhaus 93, '">EXP</tspan></text>
    <path
       style="fill:#4f4f4f;fill-opacity:1;stroke:#ffffff;stroke-width:1.77165354;stroke-linecap:butt;stroke-miterlimit:4;stroke-dasharray:none;stroke-opacity:1"
       d="m 51.915452,599.14199 0,-65.05383 314.662518,0 314.66252,0 0,65.05383 0,65.05382 -314.66252,0 -314.662518,0 0,-65.05382 z m 239.002088,-0.70711 0,-57.27565 -101.11627,0 -101.116265,0 0,57.27565 0,57.27565 101.116265,0 101.11627,0 0,-57.27565 z m 184.50015,35.56673 c 14.31359,-7.76682 18.50308,-26.40066 9.22502,-41.03066 -9.31023,-14.6807 -32.88247,-16.53244 -44.71377,-3.51253 -5.95536,6.55367 -7.92642,12.40377 -7.33081,21.75781 1.39314,21.87887 23.15203,33.45733 42.81956,22.78538 z m 105.46148,0.47131 c 8.88595,-4.53328 15.5272,-15.67555 15.49469,-25.99602 -0.0238,-7.53135 -6.18655,-18.61807 -12.77172,-22.97594 -11.54701,-7.64145 -28.53955,-5.84924 -37.7051,3.97676 -7.48357,8.02282 -9.52244,21.40828 -4.81097,31.58458 7.17312,15.49318 24.35846,21.28479 39.7931,13.41062 z m -240.16103,-1.83183 c 0.71535,-1.12504 1.07493,-0.86245 1.08944,0.79558 0.0253,2.89442 7.02284,3.58122 7.20437,0.7071 0.0894,-1.41421 0.25431,-1.41421 0.82496,0 0.46703,1.15744 3.85845,1.76777 9.82284,1.76777 8.63281,0 9.18771,-0.20353 10.60307,-3.88909 1.6855,-4.38898 0.82136,-12.32917 -1.66825,-15.32898 -2.05836,-2.48016 -15.591,-2.70429 -17.99721,-0.29808 -1.31993,1.31994 -1.69706,1.31994 -1.69706,0 0,-1.09365 -2.51416,-1.69705 -7.07107,-1.69705 -6.59966,0 -7.07106,0.2357 -7.07106,3.53553 0,2.57898 -0.75643,3.53554 -2.79583,3.53554 -3.5788,0 -7.23991,5.5375 -6.22558,9.4163 1.50625,5.7599 11.61961,6.74236 14.98138,1.45538 z m 19.64029,-39.5377 c 12.83614,-8.57509 12.69744,-25.7012 -0.28598,-35.31497 -4.82636,-3.57374 -15.34678,-3.61308 -21.39626,-0.08 -13.43612,7.84711 -13.02574,29.51912 0.68698,36.27923 6.68958,3.29783 15.27639,2.93618 20.99526,-0.88428 z m 77.35126,-38.87688 c 0.41148,-8.62438 0.33927,-8.82464 -3.18198,-8.82464 -3.44944,0 -3.60302,0.35164 -3.60302,8.24958 0,8.80976 0.70825,10.47554 4.17368,9.81633 1.64247,-0.31244 2.29558,-2.62379 2.61132,-9.24127 z m 13.10363,6.37816 0.0897,-3.18198 1.279,3.18198 c 1.59032,3.9566 5.61276,4.20997 5.61276,0.35355 0,-1.78086 0.94281,-2.82842 2.54558,-2.82842 3.3998,0 5.9397,-2.72132 5.9397,-6.36397 0,-1.63341 -0.76368,-3.73352 -1.69706,-4.6669 -2.49734,-2.49735 -9.54638,-2.1115 -10.57885,0.57906 -0.80278,2.09202 -0.97646,2.09202 -2.1472,0 -0.70059,-1.25186 -2.54765,-2.27612 -4.10462,-2.27612 -2.53564,0 -2.80184,0.84792 -2.5528,8.13173 0.31646,9.25568 0.65559,10.25305 3.48632,10.25305 1.14396,0 2.07717,-1.39576 2.1275,-3.18198 z m 22.2724,-6.38155 c 0.40691,-8.12585 0.21046,-8.82125 -2.4919,-8.82125 -2.69047,0 -2.91699,0.76758 -2.73282,9.26069 0.16721,7.71139 0.5841,9.18718 2.49189,8.82125 1.7605,-0.33768 2.3934,-2.48236 2.73283,-9.26069 z m 18.2966,7.69755 c 1.05923,-0.67672 1.76776,-4.21345 1.76776,-8.82408 l 0,-7.69472 -9.19238,0 -9.19239,0 0,7.49534 c 0,4.12243 0.68165,8.17698 1.51479,9.01012 1.71772,1.71772 12.41961,1.72717 15.10222,0.0133 l 0,5e-5 z m 36.71334,-0.96245 c 0.59774,-2.28576 1.92901,-2.82842 6.93866,-2.82842 5.90638,0 6.19903,-0.19483 6.19903,-4.12698 0,-2.26984 -0.38628,-5.13362 -0.85842,-6.36396 -1.17628,-3.06535 -8.50436,-2.89749 -10.38502,0.23789 -1.41379,2.35702 -1.55518,2.35702 -2.96897,0 -2.08607,-3.4778 -7.0008,-3.2296 -7.0008,0.35355 0,1.55564 0.7955,2.87867 1.76777,2.94008 1.41421,0.0893 1.41421,0.25431 0,0.82495 -2.09488,0.8453 -2.39971,6.13447 -0.35355,6.13447 0.77781,0 1.41421,1.27279 1.41421,2.82842 0,1.6452 0.94281,2.82843 2.25372,2.82843 1.23954,0 2.58655,-1.27279 2.99337,-2.82843 z m 29.46542,-0.64282 c 6.22349,-6.22349 2.90195,-14.91353 -5.70032,-14.91353 -6.0623,0 -9.2132,3.1509 -9.2132,9.21322 0,8.60225 8.69003,11.9238 14.91352,5.70031 z m 15.9338,-6.09228 c 0.40691,-8.12585 0.21046,-8.82125 -2.4919,-8.82125 -2.69047,0 -2.91699,0.76758 -2.73281,9.26069 0.1672,7.71139 0.5841,9.18718 2.49188,8.82125 1.7605,-0.33768 2.39341,-2.48236 2.73283,-9.26069 z m 6.92668,6.7351 c 0.41491,-1.58666 1.92901,-2.82842 3.44871,-2.82842 1.48998,0 3.2846,-1.4319 3.98806,-3.18199 1.27849,-3.18073 1.2791,-3.18059 1.53176,0.35356 0.13902,1.94454 0.33846,4.47972 0.4432,5.63372 0.10479,1.154 1.22141,2.29843 2.48152,2.54317 1.90841,0.37067 2.32463,-1.1018 2.49189,-8.8157 0.1822,-8.40288 -0.0627,-9.26069 -2.64464,-9.26069 -1.98147,0 -2.87268,0.96617 -2.9351,3.18198 l -0.0897,3.18198 -1.279,-3.18198 c -0.90428,-2.24977 -2.4524,-3.18198 -5.28435,-3.18198 -5.76364,0 -7.39948,2.40739 -7.39948,10.88945 0,5.91541 0.47506,7.49533 2.25372,7.49533 1.23954,0 2.58655,-1.27279 2.99337,-2.82843 z m 34.44857,-0.10964 c 0.70028,-1.10643 1.28298,-5.03457 1.29488,-8.7292 l 0.0216,-6.71751 -9.89949,0 -9.8995,0 0,6.45694 c 0,10.13502 1.59879,11.95383 10.05431,11.43797 4.23781,-0.25854 7.67405,-1.25669 8.42815,-2.44819 z m -186.21807,-4.95577 c 0.47214,-1.23034 0.85841,-4.09412 0.85841,-6.36396 0,-3.94842 -0.27533,-4.12698 -6.36396,-4.12698 -6.95255,0 -7.83333,1.60799 -4.98475,9.10033 1.04555,2.75 2.37747,3.6276 5.50555,3.6276 2.45809,0 4.47339,-0.90441 4.98475,-2.23699 z"
       id="path4326"
       inkscape:connector-curvature="0" />
  </g>
</svg>
